# xmcd CD database file
#
# Track frame offsets:
#	150
#	13590
#	25417
#	41820
#	56601
#	83496
#	99863
#	111817
#	126392
#	138516
#	156032
#	175744
#	192603
#
# Disc length: 2733 seconds
#
# Revision: 1
# Processed by: cddbd v1.5.2PL0 Copyright (c) Steve Scherf et al.
# Submitted via: CDex 1.70beta1
#
DISCID=a90aab0d
DTITLE=Steve Strongman - Blues in Color
DYEAR=2009
DGENRE=Blues
TTITLE0=Mean To Me
TTITLE1=Woman Across The River
TTITLE2=That's What She Does
TTITLE3=Can't Back Down
TTITLE4=Take My Arms
TTITLE5=Can't Stop, But I'm Trying
TTITLE6=Wastin' My Time
TTITLE7=Heart
TTITLE8=Lie To you
TTITLE9=Plain Hard Truth
TTITLE10=Emily
TTITLE11=Shout It Out Loud
TTITLE12=Just Sorry
EXTD=YEAR: 2009
EXTT0=
EXTT1=
EXTT2=
EXTT3=
EXTT4=
EXTT5=
EXTT6=
EXTT7=
EXTT8=
EXTT9=
EXTT10=
EXTT11=
EXTT12=
PLAYORDER=
